<?xml version="1.0" standalone="no"?>
<!DOCTYPE svg PUBLIC "-//W3C//DTD SVG 20010904//EN"
 "http://www.w3.org/TR/2001/REC-SVG-20010904/DTD/svg10.dtd">
<svg version="1.0" xmlns="http://www.w3.org/2000/svg"
 width="1080.000000pt" height="1080.000000pt" viewBox="0 0 1080.000000 1080.000000"
 preserveAspectRatio="xMidYMid meet">
<metadata>
Created by potrace 1.14, written by Peter Selinger 2001-2017
</metadata>
<g transform="translate(0.000000,1080.000000) scale(0.100000,-0.100000)"
fill="#000000" stroke="none">
<path d="M1749 9856 c-2 -2 -31 -6 -64 -10 -156 -16 -374 -99 -470 -178 -132
-110 -220 -249 -270 -428 -46 -167 -44 -12 -42 -3875 2 -1996 6 -3643 9 -3660
4 -16 9 -46 13 -65 18 -102 57 -214 105 -297 120 -212 304 -334 585 -390 86
-17 265 -18 3790 -18 l3700 0 105 24 c255 58 416 161 533 340 24 36 50 82 57
101 7 19 17 40 21 45 13 17 58 201 66 268 10 77 11 7257 1 7347 -12 114 -41
223 -84 318 -13 29 -24 55 -24 58 0 11 -81 121 -117 159 -21 22 -56 54 -78 70
-22 16 -42 33 -45 36 -3 3 -34 21 -70 38 -36 18 -72 36 -81 41 -20 10 -152 47
-199 55 -19 3 -62 10 -95 15 -56 8 -7337 14 -7346 6z"/>
</g>
</svg>
